<svg id="Layer_1" data-name="Layer 1" xmlns="http://www.w3.org/2000/svg" viewBox="0 0 279.02 145.76"><defs><style>.cls-1{fill:#ef4136;}.cls-2{fill:#fff;}</style></defs><g id="Logo"><path class="cls-1" d="M323.81,337.76c1.47,1.24,2.26,1.09,3.59-.08,4.13-3.66,8.24-7.36,12.69-10.65a56.82,56.82,0,0,1,10.44-6.11,2.65,2.65,0,0,1,2.69.17,60.44,60.44,0,0,1,20.2,19.31,31.85,31.85,0,1,0-61-13.39C316.1,330.74,319.82,334.38,323.81,337.76Z" transform="translate(-158.13 -295.66)"/><path class="cls-2" d="M417.37,365.57q-10.51-12.36-21-24.78a1.83,1.83,0,0,0-2.58-.62c-4.21,2-8.47,3.91-12.72,5.82-2.63,1.18-2.63,1.15-4-1.32-1.08-2-2.25-3.84-3.47-5.67a60.44,60.44,0,0,0-20.2-19.31,2.65,2.65,0,0,0-2.69-.17,57.15,57.15,0,0,0-10.44,6.11c-4.45,3.29-8.55,7-12.69,10.65-1.33,1.17-2.12,1.32-3.59.08-4-3.38-7.71-7-11.36-10.75-2.8-2.87-5.57-5.79-8.35-8.68-6.29-6.54-12.8-12.81-20.45-17.8-.87-.57-1.42-.71-2.29.1-10.31,9.51-20.4,19.23-30.17,29.29Q241.11,339.13,231,349.87c-.82.86-1.23.84-1.93-.05-.88-1.12-1.88-2.14-2.85-3.19-3.13-3.37-6.75-5.91-11.38-6.79a3.89,3.89,0,0,0-3.05.57,178.54,178.54,0,0,0-16.95,12.4c-12.7,10.49-24.29,22.21-36.67,33.06h7.18a344.32,344.32,0,0,1,35.27-31.16c1.39-1.08,2.8-2.13,4.21-3.19.16,0,.2-.47.45-.14,0,0-.14.22-.22.34a126.78,126.78,0,0,1-9.52,16.89c-3.87,6-8.33,11.63-12.75,17.26h65c1.19-2.27,3-4.07,4.38-6.24.9-1.45,2.46-2.92,2.45-4.37s-2.33-2-3.55-3a48,48,0,0,1-4.39-4c-5.84-6.35-6.83-13.15-3-20.89,2.8-5.64,6.95-10.24,11.27-14.72,6.88-7.13,14.45-13.56,21.16-20.86,1.34-1.46,2.64-3,4.28-4.79-.77,2.5-1.54,4.51-2,6.58-3,13.16-2.6,26.09,2.92,38.6a24.35,24.35,0,0,0,6.62,9c.79.66.74,1.16.35,2-3.81,8.21-10,14.3-17.32,19.35-1.67,1.15-3.36,2.29-5,3.43H318.5c1.91-1.84,3.86-3.65,5.74-5.52a80.55,80.55,0,0,0,16-22.55.56.56,0,0,0,0-.12,2,2,0,0,0-.24-2.31,71.22,71.22,0,0,1-7.74-12.81,2,2,0,0,1,.33-2.44,53.06,53.06,0,0,1,13-11.15c.13-.1.24-.43.45-.14s-.06.28-.25.3c-1.67,3.25-4.09,6-6.06,9.07-.65,1-.7,1.59.26,2.5a194.58,194.58,0,0,1,14.47,15.64c.82,1,1.64,1.93,2.45,2.91a1.71,1.71,0,0,1,.15,2.24,188.42,188.42,0,0,1-13.64,22.65c-.39.55-.71,1.15-1.06,1.73h38.3c1.47-.68,3.07-.49,4.61-.62q4.26-.39,8.53-.53c1.26,0,1.43-.5,1.29-1.65-.83-6.4-3.13-12.31-5.73-18.14a108.85,108.85,0,0,1-5-12.68c-.31-1-.21-1.51.86-1.89a17.52,17.52,0,0,0,2.53-1.4,25,25,0,0,1,2.54-1.38c3.71-1.52,5.06-.91,6.3,2.81a58.36,58.36,0,0,1,2.49,17.16q.18,7.6,0,15.2c0,1.63.54,2,2,2.12a19.52,19.52,0,0,1,5.65,1h30.43A197.48,197.48,0,0,1,417.37,365.57ZM297.52,351.72l.23-.34S297.6,351.6,297.52,351.72ZM297.41,329c.14-.1.24-.43.45-.14Z" transform="translate(-158.13 -295.66)"/><path class="cls-2" d="M160.46,398.94h10.43q9.84,0,9.84,10.41v21.23q0,10.38-9.84,10.38H160.46Zm6.59,6v30h3.72q3.38,0,3.37-4.07V409q0-4.06-3.37-4.07Z" transform="translate(-158.13 -295.66)"/><path class="cls-2" d="M184.39,409q0-10.54,10-10.54t10,10.54v21.86q0,10.55-10,10.54t-10-10.54Zm6.6,22.27q0,4.15,3.42,4.16t3.43-4.16V408.61q0-4.12-3.43-4.13T191,408.61Z" transform="translate(-158.13 -295.66)"/><path class="cls-2" d="M214.57,410.55V441h-5.95v-42h8.29l6.77,25.17V398.94h5.89v42h-6.8Z" transform="translate(-158.13 -295.66)"/><path class="cls-2" d="M244.19,417.55h9.26v13.33q0,10.55-9.85,10.54t-9.84-10.54V409q0-10.54,9.84-10.54T253.45,409v4.1h-6.24v-4.51c0-2.75-1.15-4.13-3.43-4.13s-3.43,1.38-3.43,4.13v22.68q0,4.09,3.43,4.1c2.28,0,3.43-1.37,3.43-4.1v-7.74h-3Z" transform="translate(-158.13 -295.66)"/><path class="cls-2" d="M265.16,398.94h20.4v6h-6.89v36h-6.59V405h-6.92Z" transform="translate(-158.13 -295.66)"/><path class="cls-2" d="M309.9,441h-6.65l-1.14-7.62H294L292.88,441h-6.07l6.71-42h9.67Zm-15.06-13.33h6.39L298,406.39Z" transform="translate(-158.13 -295.66)"/><path class="cls-2" d="M312.42,409q0-10.54,10-10.54t10,10.54v21.86q0,10.55-10,10.54t-10-10.54ZM319,431.29q0,4.15,3.43,4.16c2.28,0,3.43-1.39,3.43-4.16V408.61c0-2.75-1.15-4.13-3.43-4.13s-3.43,1.38-3.43,4.13Z" transform="translate(-158.13 -295.66)"/><path class="cls-2" d="M354.9,398.48q9.72,0,9.73,10.54v2.23h-6.24v-2.64c0-2.75-1.11-4.13-3.31-4.13s-3.31,1.38-3.31,4.13a8.76,8.76,0,0,0,2,5.45,21.06,21.06,0,0,0,2.08,2.23l1.75,1.64.62.56a30.08,30.08,0,0,1,2.34,2.34,17.76,17.76,0,0,1,2.08,2.72,13.69,13.69,0,0,1,2,7.33q0,10.55-9.85,10.54T345,430.88v-4.07h6.24v4.48q0,4.09,3.43,4.1t3.39-4.1a8.71,8.71,0,0,0-2-5.42,25.83,25.83,0,0,0-2.08-2.26l-2.37-2.19c-1-.9-1.77-1.68-2.37-2.35a19.81,19.81,0,0,1-2.05-2.69,13.84,13.84,0,0,1-2-7.36Q345.17,398.48,354.9,398.48Z" transform="translate(-158.13 -295.66)"/><path class="cls-2" d="M375,441h-6.59v-42H375v18h7.5v-18h6.74v42H382.5V423H375Z" transform="translate(-158.13 -295.66)"/><path class="cls-2" d="M392.58,409q0-10.54,10-10.54t10,10.54v21.86q0,10.55-10,10.54t-10-10.54Zm6.59,22.27q0,4.15,3.43,4.16t3.42-4.16V408.61q0-4.12-3.42-4.13t-3.43,4.13Z" transform="translate(-158.13 -295.66)"/><path class="cls-2" d="M426.59,398.94q9.84,0,9.84,10.41v5.44q0,10.38-9.84,10.38h-3.13V441h-6.6v-42Zm-3.13,6v14.24h3.13q3.23,0,3.22-4v-6.29q0-4-3.22-4Z" transform="translate(-158.13 -295.66)"/></g></svg>